<?xml version="1.0" encoding="utf-8"?>
<svg viewBox="0 0 115 50" xmlns="http://www.w3.org/2000/svg" xmlns:xlink="http://www.w3.org/1999/xlink">
  <defs>
    <linearGradient id="color-2-0" gradientUnits="userSpaceOnUse" x1="67.585" y1="3.135" x2="67.585" y2="41.39" xlink:href="#color-2"/>
    <linearGradient id="color-2">
      <stop style="stop-color: #00f260;" offset="0"/>
      <stop style="stop-color: #0575e6;" offset="1"/>
    </linearGradient>
    <linearGradient id="color-2-6" gradientUnits="userSpaceOnUse" x1="110.267" y1="65.31" x2="110.267" y2="87.296" xlink:href="#color-2"/>
    <linearGradient id="color-2-5" gradientUnits="userSpaceOnUse" x1="117.883" y1="72.893" x2="117.883" y2="95.047" xlink:href="#color-2"/>
    <linearGradient id="color-1-0" gradientUnits="userSpaceOnUse" x1="78.657" y1="17.691" x2="78.657" y2="26.333" xlink:href="#color-1"/>
    <linearGradient id="color-1">
      <stop style="stop-color: #0099f7;" offset="0"/>
      <stop style="stop-color: #f11712;" offset="1"/>
    </linearGradient>
    <linearGradient id="color-2-1" gradientUnits="userSpaceOnUse" x1="81.594" y1="14.367" x2="81.594" y2="27.396" xlink:href="#color-2"/>
    <linearGradient id="color-2-2" gradientUnits="userSpaceOnUse" x1="81.594" y1="14.367" x2="81.594" y2="27.396" xlink:href="#color-2"/>
    <linearGradient id="color-2-3" gradientUnits="userSpaceOnUse" x1="81.594" y1="14.367" x2="81.594" y2="27.396" xlink:href="#color-2"/>
    <linearGradient id="color-2-4" gradientUnits="userSpaceOnUse" x1="81.594" y1="14.367" x2="81.594" y2="27.396" xlink:href="#color-2"/>
  </defs>
  <g id="layer3" transform="matrix(0.303647994995, 0.004114000127, -0.034355007112, 0.528638899326, -1.893455701117, -3.260362300408)" style="transform-origin: 67.585px 22.2625px;">
    <path style="stroke-width: 4; stroke-linecap: butt; stroke-linejoin: miter; stroke-dasharray: none; stroke-opacity: 1; fill: none; stroke: url(#color-2-0);" d="M 23.66 41.39 C 42.496 -43.82 62.207 41.546 111.51 30.427" id="path586-7-5"/>
  </g>
  <g id="layer1" transform="matrix(1.3596000671386719, 0, 0, 1.7648699283599854, -42.99967956542969, -6.1296257972717285)" style="">
    <g id="g16950" transform="matrix(0.458857, 0, 0, 0.458857, -12.722214, -15.87053)" style="display:inline">
      <path style="fill-opacity: 1; stroke-width: 0.264583; fill: url(#color-2-6);" d="m 113.91105,65.310547 c -1.21276,0.0056 -2.37092,0.109066 -3.38998,0.289388 -3.00202,0.530359 -3.54707,1.640444 -3.54707,3.68763 v 2.703711 h 7.09414 v 0.901237 h -7.09414 -2.66237 c -2.06175,0 -3.86708,1.239234 -4.431767,3.59668 -0.651356,2.70218 -0.680247,4.388385 0,7.209896 0.504277,2.100223 1.708557,3.596679 3.770317,3.596679 h 2.43912 v -3.241146 c 0,-2.341536 2.02596,-4.406965 4.43177,-4.406966 h 7.08588 c 1.97245,0 3.54707,-1.624056 3.54707,-3.604948 v -6.755143 c 0,-1.922552 -1.62189,-3.366764 -3.54707,-3.68763 -1.21867,-0.202862 -2.48314,-0.295023 -3.6959,-0.289388 z m -3.83646,2.174545 c 0.73278,0 1.33118,0.608183 1.33118,1.355989 0,0.745156 -0.5984,1.347721 -1.33118,1.347721 -0.7354,0 -1.33119,-0.602566 -1.33119,-1.347721 0,-0.747806 0.59579,-1.355989 1.33119,-1.355989 z" id="path1948"/>
      <path style="fill-opacity: 1; stroke-width: 0.264583; fill: url(#color-2-5);" d="m 122.03872,72.892513 v 3.150195 c 0,2.442304 -2.0706,4.497917 -4.43177,4.497917 h -7.08588 c -1.94094,0 -3.54707,1.661182 -3.54707,3.604948 v 6.755142 c 0,1.922554 1.6718,3.053378 3.54707,3.604949 2.24561,0.660297 4.39903,0.779629 7.08588,0 1.78597,-0.517099 3.54707,-1.557763 3.54707,-3.604949 v -2.70371 h -7.08588 v -0.901237 h 7.08588 3.54707 c 2.06175,0 2.83005,-1.438118 3.54707,-3.596679 0.74065,-2.222206 0.70914,-4.359216 0,-7.209896 -0.50953,-2.05249 -1.48269,-3.59668 -3.54707,-3.59668 z m -3.98529,17.106966 c 0.7354,1e-6 1.33119,0.602567 1.33119,1.347721 0,0.747806 -0.59579,1.35599 -1.33119,1.35599 -0.73278,0 -1.33118,-0.608184 -1.33118,-1.35599 0,-0.745154 0.5984,-1.347721 1.33118,-1.347721 z" id="path1950-4"/>
    </g>
    <path d="M 54.523 24.272 L 48.464 24.272 L 48.464 15.835 L 54.523 15.835 L 54.523 16.913 L 50.79 16.913 L 50.79 19.52 L 53.673 19.52 L 53.673 20.592 L 50.79 20.592 L 50.79 23.194 L 54.523 23.194 Z" style="fill: url(#color-2-1); white-space: pre;"/>
    <path d="M 57.879 24.272 L 56.691 24.272 L 55.05 19.76 L 56.371 19.76 L 57.574 23.354 L 58.742 19.76 L 59.656 19.76 Z" style="fill: url(#color-2-2); white-space: pre;"/>
    <path d="M 61.207 22.131 Q 61.449 22.186 61.691 22.217 Q 61.933 22.249 62.179 22.249 Q 62.437 22.249 62.658 22.2 Q 62.879 22.151 63.041 22.036 Q 63.203 21.92 63.297 21.729 Q 63.39 21.538 63.39 21.252 Q 63.39 21.022 63.328 20.831 Q 63.265 20.639 63.142 20.502 Q 63.019 20.366 62.84 20.29 Q 62.66 20.213 62.422 20.213 Q 62.199 20.213 62.021 20.295 Q 61.843 20.377 61.709 20.516 Q 61.574 20.655 61.478 20.838 Q 61.383 21.022 61.32 21.221 Q 61.258 21.42 61.23 21.624 Q 61.203 21.827 61.203 22.006 Q 61.203 22.038 61.203 22.069 Q 61.203 22.1 61.207 22.131 Z M 64.461 21.241 Q 64.461 21.518 64.371 21.735 Q 64.281 21.952 64.127 22.116 Q 63.972 22.28 63.769 22.393 Q 63.566 22.506 63.336 22.579 Q 63.105 22.651 62.861 22.682 Q 62.617 22.713 62.386 22.713 Q 62.093 22.713 61.808 22.672 Q 61.523 22.631 61.246 22.542 Q 61.289 22.799 61.383 23.032 Q 61.476 23.264 61.633 23.438 Q 61.789 23.612 62.017 23.713 Q 62.246 23.815 62.558 23.815 Q 62.765 23.815 62.953 23.752 Q 63.14 23.69 63.297 23.577 Q 63.453 23.463 63.572 23.307 Q 63.691 23.151 63.765 22.96 L 64.336 23.17 Q 64.207 23.479 63.982 23.704 Q 63.758 23.928 63.474 24.075 Q 63.191 24.221 62.873 24.292 Q 62.554 24.362 62.242 24.362 Q 61.726 24.362 61.289 24.188 Q 60.851 24.014 60.535 23.702 Q 60.218 23.389 60.039 22.956 Q 59.859 22.522 59.859 22.006 Q 59.859 21.491 60.039 21.057 Q 60.218 20.624 60.535 20.311 Q 60.851 19.999 61.289 19.825 Q 61.726 19.651 62.242 19.651 Q 62.492 19.651 62.754 19.686 Q 63.015 19.721 63.261 19.797 Q 63.508 19.874 63.726 19.995 Q 63.945 20.116 64.107 20.293 Q 64.269 20.471 64.365 20.706 Q 64.461 20.94 64.461 21.241 Z" style="fill: url(#color-2-2); white-space: pre;"/>
    <path d="M 69.892 21.686 Q 69.892 22.143 69.78 22.639 Q 69.669 23.135 69.47 23.612 Q 69.271 24.088 68.993 24.508 Q 68.716 24.928 68.384 25.233 L 67.888 24.963 Q 67.993 24.768 68.087 24.526 Q 68.181 24.284 68.257 24.012 Q 68.333 23.741 68.394 23.452 Q 68.454 23.163 68.495 22.879 Q 68.536 22.596 68.558 22.329 Q 68.579 22.061 68.579 21.831 Q 68.579 21.678 68.568 21.504 Q 68.556 21.331 68.519 21.157 Q 68.482 20.983 68.419 20.823 Q 68.357 20.663 68.253 20.542 Q 68.15 20.42 68.003 20.346 Q 67.857 20.272 67.657 20.272 Q 67.462 20.272 67.31 20.36 Q 67.157 20.448 67.04 20.59 Q 66.923 20.733 66.839 20.917 Q 66.755 21.1 66.702 21.293 Q 66.65 21.487 66.626 21.674 Q 66.603 21.862 66.603 22.01 L 66.603 24.272 L 65.278 24.272 L 65.278 19.76 L 65.786 19.76 L 66.392 20.811 Q 66.501 20.549 66.665 20.335 Q 66.829 20.12 67.036 19.967 Q 67.243 19.815 67.495 19.733 Q 67.747 19.651 68.04 19.651 Q 68.509 19.651 68.857 19.803 Q 69.204 19.956 69.435 20.227 Q 69.665 20.499 69.778 20.872 Q 69.892 21.245 69.892 21.686 Z" style="fill: url(#color-2-2); white-space: pre;"/>
    <path d="M 72.413 24.272 L 71.089 24.272 L 71.089 20.284 L 70.269 20.284 L 70.269 19.76 L 71.089 19.76 L 71.089 18.1 L 72.413 18.1 L 72.413 19.76 L 73.78 19.76 L 73.78 20.284 L 72.413 20.284 Z" style="fill: url(#color-2-2); white-space: pre;"/>
    <path d="M 82.978 20.042 Q 82.978 20.657 82.814 21.21 Q 82.65 21.764 82.354 22.233 Q 82.058 22.702 81.648 23.08 Q 81.237 23.458 80.742 23.721 Q 80.247 23.985 79.682 24.128 Q 79.116 24.272 78.519 24.272 L 74.798 24.272 L 74.798 15.835 L 78.519 15.835 Q 79.116 15.835 79.679 15.975 Q 80.241 16.116 80.736 16.376 Q 81.232 16.637 81.645 17.012 Q 82.058 17.387 82.354 17.853 Q 82.65 18.319 82.814 18.873 Q 82.978 19.426 82.978 20.042 Z M 80.616 20.042 Q 80.616 19.356 80.449 18.738 Q 80.282 18.12 79.931 17.651 Q 79.579 17.182 79.037 16.907 Q 78.495 16.631 77.739 16.631 L 77.124 16.631 L 77.124 23.452 L 77.739 23.452 Q 78.484 23.452 79.026 23.173 Q 79.568 22.895 79.922 22.423 Q 80.276 21.952 80.446 21.336 Q 80.616 20.721 80.616 20.042 Z" style="fill: url(#color-2-3); white-space: pre;"/>
    <path d="M 85.091 22.131 Q 85.333 22.186 85.575 22.217 Q 85.817 22.249 86.063 22.249 Q 86.321 22.249 86.542 22.2 Q 86.763 22.151 86.925 22.036 Q 87.087 21.92 87.181 21.729 Q 87.274 21.538 87.274 21.252 Q 87.274 21.022 87.212 20.831 Q 87.149 20.639 87.026 20.502 Q 86.903 20.366 86.724 20.29 Q 86.544 20.213 86.306 20.213 Q 86.083 20.213 85.905 20.295 Q 85.727 20.377 85.593 20.516 Q 85.458 20.655 85.362 20.838 Q 85.267 21.022 85.204 21.221 Q 85.142 21.42 85.114 21.624 Q 85.087 21.827 85.087 22.006 Q 85.087 22.038 85.087 22.069 Q 85.087 22.1 85.091 22.131 Z M 88.345 21.241 Q 88.345 21.518 88.255 21.735 Q 88.165 21.952 88.011 22.116 Q 87.856 22.28 87.653 22.393 Q 87.45 22.506 87.22 22.579 Q 86.989 22.651 86.745 22.682 Q 86.501 22.713 86.27 22.713 Q 85.977 22.713 85.692 22.672 Q 85.407 22.631 85.13 22.542 Q 85.173 22.799 85.267 23.032 Q 85.36 23.264 85.517 23.438 Q 85.673 23.612 85.901 23.713 Q 86.13 23.815 86.442 23.815 Q 86.649 23.815 86.837 23.752 Q 87.024 23.69 87.181 23.577 Q 87.337 23.463 87.456 23.307 Q 87.575 23.151 87.649 22.96 L 88.22 23.17 Q 88.091 23.479 87.866 23.704 Q 87.642 23.928 87.358 24.075 Q 87.075 24.221 86.757 24.292 Q 86.438 24.362 86.126 24.362 Q 85.61 24.362 85.173 24.188 Q 84.735 24.014 84.419 23.702 Q 84.102 23.389 83.923 22.956 Q 83.743 22.522 83.743 22.006 Q 83.743 21.491 83.923 21.057 Q 84.102 20.624 84.419 20.311 Q 84.735 19.999 85.173 19.825 Q 85.61 19.651 86.126 19.651 Q 86.376 19.651 86.638 19.686 Q 86.899 19.721 87.145 19.797 Q 87.392 19.874 87.61 19.995 Q 87.829 20.116 87.991 20.293 Q 88.153 20.471 88.249 20.706 Q 88.345 20.94 88.345 21.241 Z" style="fill: url(#color-2-4); white-space: pre;"/>
    <path d="M 90.862 24.272 L 89.537 24.272 L 89.537 20.284 L 88.717 20.284 L 88.717 19.76 L 89.537 19.76 L 89.537 18.1 L 90.862 18.1 L 90.862 19.76 L 92.229 19.76 L 92.229 20.284 L 90.862 20.284 Z" style="fill: url(#color-2-4); white-space: pre;"/>
    <path d="M 93.72 22.131 Q 93.962 22.186 94.204 22.217 Q 94.447 22.249 94.693 22.249 Q 94.95 22.249 95.171 22.2 Q 95.392 22.151 95.554 22.036 Q 95.716 21.92 95.81 21.729 Q 95.904 21.538 95.904 21.252 Q 95.904 21.022 95.841 20.831 Q 95.779 20.639 95.655 20.502 Q 95.532 20.366 95.353 20.29 Q 95.173 20.213 94.935 20.213 Q 94.712 20.213 94.534 20.295 Q 94.357 20.377 94.222 20.516 Q 94.087 20.655 93.991 20.838 Q 93.896 21.022 93.833 21.221 Q 93.771 21.42 93.743 21.624 Q 93.716 21.827 93.716 22.006 Q 93.716 22.038 93.716 22.069 Q 93.716 22.1 93.72 22.131 Z M 96.974 21.241 Q 96.974 21.518 96.884 21.735 Q 96.794 21.952 96.64 22.116 Q 96.486 22.28 96.282 22.393 Q 96.079 22.506 95.849 22.579 Q 95.618 22.651 95.374 22.682 Q 95.13 22.713 94.9 22.713 Q 94.607 22.713 94.322 22.672 Q 94.036 22.631 93.759 22.542 Q 93.802 22.799 93.896 23.032 Q 93.989 23.264 94.146 23.438 Q 94.302 23.612 94.53 23.713 Q 94.759 23.815 95.072 23.815 Q 95.279 23.815 95.466 23.752 Q 95.654 23.69 95.81 23.577 Q 95.966 23.463 96.085 23.307 Q 96.204 23.151 96.279 22.96 L 96.849 23.17 Q 96.72 23.479 96.495 23.704 Q 96.271 23.928 95.988 24.075 Q 95.704 24.221 95.386 24.292 Q 95.068 24.362 94.755 24.362 Q 94.239 24.362 93.802 24.188 Q 93.364 24.014 93.048 23.702 Q 92.732 23.389 92.552 22.956 Q 92.372 22.522 92.372 22.006 Q 92.372 21.491 92.552 21.057 Q 92.732 20.624 93.048 20.311 Q 93.364 19.999 93.802 19.825 Q 94.239 19.651 94.755 19.651 Q 95.005 19.651 95.267 19.686 Q 95.529 19.721 95.775 19.797 Q 96.021 19.874 96.239 19.995 Q 96.458 20.116 96.62 20.293 Q 96.782 20.471 96.878 20.706 Q 96.974 20.94 96.974 21.241 Z" style="fill: url(#color-2-4); white-space: pre;"/>
    <path d="M 101.966 20.877 L 101.395 21.104 Q 101.259 20.674 100.938 20.444 Q 100.618 20.213 100.169 20.213 Q 99.927 20.213 99.737 20.29 Q 99.548 20.366 99.405 20.499 Q 99.263 20.631 99.163 20.807 Q 99.063 20.983 99.001 21.182 Q 98.938 21.381 98.911 21.594 Q 98.884 21.807 98.884 22.006 Q 98.884 22.221 98.907 22.44 Q 98.931 22.659 98.987 22.86 Q 99.044 23.061 99.138 23.235 Q 99.231 23.409 99.374 23.538 Q 99.516 23.667 99.714 23.741 Q 99.911 23.815 100.169 23.815 Q 100.376 23.815 100.563 23.752 Q 100.751 23.69 100.907 23.577 Q 101.063 23.463 101.184 23.307 Q 101.306 23.151 101.376 22.96 L 101.95 23.17 Q 101.821 23.479 101.608 23.704 Q 101.395 23.928 101.126 24.075 Q 100.856 24.221 100.548 24.292 Q 100.239 24.362 99.923 24.362 Q 99.411 24.362 98.973 24.188 Q 98.536 24.014 98.218 23.7 Q 97.899 23.385 97.72 22.954 Q 97.54 22.522 97.54 22.006 Q 97.54 21.487 97.718 21.053 Q 97.895 20.62 98.212 20.307 Q 98.528 19.995 98.966 19.823 Q 99.403 19.651 99.923 19.651 Q 100.251 19.651 100.563 19.723 Q 100.876 19.795 101.143 19.946 Q 101.411 20.096 101.624 20.327 Q 101.837 20.557 101.966 20.877 Z" style="fill: url(#color-2-4); white-space: pre;"/>
    <path d="M 104.44 24.272 L 103.116 24.272 L 103.116 20.284 L 102.296 20.284 L 102.296 19.76 L 103.116 19.76 L 103.116 18.1 L 104.44 18.1 L 104.44 19.76 L 105.807 19.76 L 105.807 20.284 L 104.44 20.284 Z" style="fill: url(#color-2-4); white-space: pre;"/>
    <path d="M 110.988 22.006 Q 110.988 22.358 110.894 22.667 Q 110.801 22.975 110.635 23.237 Q 110.469 23.499 110.234 23.708 Q 110 23.917 109.721 24.061 Q 109.441 24.206 109.123 24.284 Q 108.805 24.362 108.469 24.362 Q 108.133 24.362 107.816 24.284 Q 107.5 24.206 107.221 24.061 Q 106.941 23.917 106.707 23.708 Q 106.472 23.499 106.306 23.237 Q 106.14 22.975 106.047 22.665 Q 105.953 22.354 105.953 22.006 Q 105.953 21.659 106.047 21.348 Q 106.14 21.038 106.306 20.776 Q 106.472 20.514 106.707 20.305 Q 106.941 20.096 107.221 19.952 Q 107.5 19.807 107.816 19.729 Q 108.133 19.651 108.469 19.651 Q 108.805 19.651 109.123 19.729 Q 109.441 19.807 109.721 19.952 Q 110 20.096 110.234 20.305 Q 110.469 20.514 110.635 20.776 Q 110.801 21.038 110.894 21.348 Q 110.988 21.659 110.988 22.006 Z M 109.644 22.006 Q 109.644 21.819 109.623 21.61 Q 109.601 21.401 109.551 21.2 Q 109.5 20.999 109.412 20.813 Q 109.324 20.627 109.195 20.489 Q 109.066 20.35 108.887 20.266 Q 108.707 20.182 108.469 20.182 Q 108.242 20.182 108.066 20.268 Q 107.89 20.354 107.76 20.497 Q 107.629 20.639 107.541 20.827 Q 107.453 21.014 107.398 21.215 Q 107.344 21.417 107.32 21.622 Q 107.297 21.827 107.297 22.006 Q 107.297 22.186 107.32 22.391 Q 107.344 22.596 107.398 22.799 Q 107.453 23.002 107.541 23.188 Q 107.629 23.374 107.76 23.516 Q 107.89 23.659 108.066 23.745 Q 108.242 23.831 108.469 23.831 Q 108.703 23.831 108.883 23.747 Q 109.062 23.663 109.193 23.522 Q 109.324 23.381 109.41 23.198 Q 109.496 23.014 109.549 22.811 Q 109.601 22.608 109.623 22.401 Q 109.644 22.194 109.644 22.006 Z" style="fill: url(#color-2-4); white-space: pre;"/>
    <path d="M 115.653 20.159 L 114.91 21.389 Q 114.863 21.233 114.789 21.038 Q 114.715 20.842 114.606 20.672 Q 114.496 20.502 114.344 20.387 Q 114.192 20.272 113.992 20.272 Q 113.809 20.272 113.674 20.366 Q 113.539 20.46 113.445 20.61 Q 113.352 20.76 113.291 20.95 Q 113.231 21.139 113.197 21.333 Q 113.164 21.526 113.153 21.704 Q 113.141 21.881 113.141 22.01 L 113.141 24.272 L 111.817 24.272 L 111.817 19.76 L 112.324 19.76 L 112.86 20.811 Q 112.969 20.557 113.11 20.344 Q 113.25 20.131 113.434 19.977 Q 113.617 19.823 113.85 19.737 Q 114.082 19.651 114.375 19.651 Q 114.528 19.651 114.715 19.676 Q 114.903 19.702 115.082 19.762 Q 115.262 19.823 115.414 19.92 Q 115.567 20.018 115.653 20.159 Z" style="fill: url(#color-2-4); white-space: pre;"/>
  </g>
</svg>